<svg width="560" height="24" viewBox="0 0 560 24" fill="none" xmlns="http://www.w3.org/2000/svg">
<path d="M11.99 2C6.47 2 2 6.48 2 12C2 17.52 6.47 22 11.99 22C17.52 22 22 17.52 22 12C22 6.48 17.52 2 11.99 2ZM16 16C15.9075 16.0927 15.7976 16.1663 15.6766 16.2164C15.5557 16.2666 15.426 16.2924 15.295 16.2924C15.164 16.2924 15.0343 16.2666 14.9134 16.2164C14.7924 16.1663 14.6825 16.0927 14.59 16L11.3 12.71C11.2055 12.6174 11.1303 12.5069 11.0788 12.3851C11.0273 12.2632 11.0005 12.1323 11 12V8C11 7.45 11.45 7 12 7C12.55 7 13 7.45 13 8V11.59L16 14.59C16.39 14.98 16.39 15.61 16 16Z" fill="#888B97"/>
<path d="M40.06 17.042C39.444 17.042 38.884 16.916 38.38 16.664C37.8853 16.4027 37.4887 16.0573 37.19 15.628C36.9007 15.1987 36.756 14.718 36.756 14.186C36.7467 13.6727 36.882 13.2107 37.162 12.8C37.4513 12.38 37.8573 12.0347 38.38 11.764C37.9693 11.5773 37.6473 11.3067 37.414 10.952C37.1807 10.5973 37.064 10.21 37.064 9.79C37.064 9.314 37.1947 8.88 37.456 8.488C37.7267 8.096 38.086 7.78333 38.534 7.55C38.9913 7.31667 39.5 7.2 40.06 7.2C40.6107 7.2 41.11 7.31667 41.558 7.55C42.0153 7.78333 42.3793 8.096 42.65 8.488C42.9207 8.88 43.056 9.314 43.056 9.79C43.056 10.2193 42.9347 10.6113 42.692 10.966C42.4587 11.3113 42.118 11.582 41.67 11.778C42.1833 12.0207 42.594 12.366 42.902 12.814C43.21 13.2527 43.364 13.71 43.364 14.186C43.364 14.718 43.2147 15.2033 42.916 15.642C42.6267 16.0713 42.23 16.412 41.726 16.664C41.2313 16.916 40.676 17.042 40.06 17.042ZM40.06 11.372C40.592 11.372 41.0353 11.2273 41.39 10.938C41.754 10.6487 41.936 10.2753 41.936 9.818C41.936 9.37933 41.754 9.01067 41.39 8.712C41.0353 8.404 40.592 8.25 40.06 8.25C39.5187 8.25 39.0707 8.404 38.716 8.712C38.3613 9.01067 38.184 9.37933 38.184 9.818C38.184 10.266 38.3613 10.6393 38.716 10.938C39.0707 11.2273 39.5187 11.372 40.06 11.372ZM40.06 15.992C40.48 15.992 40.8533 15.9127 41.18 15.754C41.5067 15.586 41.7633 15.3667 41.95 15.096C42.146 14.816 42.244 14.5033 42.244 14.158C42.244 13.8033 42.146 13.4907 41.95 13.22C41.7633 12.94 41.5067 12.7207 41.18 12.562C40.8533 12.4033 40.48 12.324 40.06 12.324C39.64 12.324 39.2667 12.4033 38.94 12.562C38.6133 12.7207 38.352 12.94 38.156 13.22C37.9693 13.4907 37.876 13.8033 37.876 14.158C37.876 14.494 37.9693 14.802 38.156 15.082C38.352 15.362 38.6133 15.586 38.94 15.754C39.2667 15.9127 39.64 15.992 40.06 15.992ZM49.0529 17V9.678H50.1169L50.1309 10.938C50.3736 10.518 50.7189 10.182 51.1669 9.93C51.6149 9.66867 52.1003 9.538 52.6229 9.538C53.1456 9.538 53.5889 9.65933 53.9529 9.902C54.3263 10.1447 54.6063 10.56 54.7929 11.148C54.9329 10.8587 55.1383 10.5927 55.4089 10.35C55.6796 10.1073 55.9876 9.91133 56.3329 9.762C56.6876 9.61267 57.0609 9.538 57.4529 9.538C58.2276 9.538 58.8156 9.79 59.2169 10.294C59.6276 10.7887 59.8329 11.554 59.8329 12.59V17H58.7549V12.646C58.7549 11.9273 58.6196 11.4 58.3489 11.064C58.0783 10.7187 57.6723 10.546 57.1309 10.546C56.7109 10.546 56.3376 10.6393 56.0109 10.826C55.6843 11.0127 55.4276 11.26 55.2409 11.568C55.0636 11.876 54.9749 12.212 54.9749 12.576V17H53.8969V12.632C53.8969 11.2413 53.3556 10.546 52.2729 10.546C51.8623 10.546 51.4936 10.6393 51.1669 10.826C50.8403 11.0033 50.5836 11.246 50.3969 11.554C50.2196 11.862 50.1309 12.198 50.1309 12.562V17H49.0529ZM62.4948 8.11C62.2334 8.11 62.0328 8.04467 61.8928 7.914C61.7528 7.774 61.6828 7.58267 61.6828 7.34C61.6828 7.10667 61.7528 6.92 61.8928 6.78C62.0328 6.64 62.2334 6.57 62.4948 6.57C62.7468 6.57 62.9428 6.64 63.0828 6.78C63.2228 6.91067 63.2928 7.09733 63.2928 7.34C63.2928 7.57333 63.2228 7.76 63.0828 7.9C62.9428 8.04 62.7468 8.11 62.4948 8.11ZM61.9628 17V9.678H63.0408V17H61.9628ZM65.1724 17V9.678H66.2224L66.2504 10.924C66.4744 10.532 66.8197 10.2007 67.2864 9.93C67.7624 9.65933 68.2617 9.524 68.7844 9.524C69.5964 9.524 70.2077 9.776 70.6184 10.28C71.0384 10.7747 71.2484 11.5307 71.2484 12.548V17H70.1704V12.618C70.1704 11.19 69.5964 10.49 68.4484 10.518C68.0191 10.518 67.6364 10.6113 67.3004 10.798C66.9737 10.9847 66.7124 11.232 66.5164 11.54C66.3297 11.848 66.2364 12.184 66.2364 12.548V17H65.1724ZM77.1763 17V9.678H78.2403L78.2543 11.092C78.4503 10.6533 78.749 10.2847 79.1503 9.986C79.5516 9.678 80.009 9.524 80.5223 9.524C80.681 9.524 80.8303 9.538 80.9703 9.566C81.1103 9.594 81.227 9.622 81.3203 9.65L81.0263 10.84C80.7836 10.7373 80.541 10.686 80.2983 10.686C79.8783 10.686 79.5143 10.7887 79.2063 10.994C78.8983 11.19 78.6603 11.4513 78.4923 11.778C78.3336 12.1047 78.2543 12.464 78.2543 12.856V17H77.1763ZM85.3322 17.14C84.5948 17.14 83.9415 16.9813 83.3722 16.664C82.8122 16.3467 82.3735 15.9033 82.0562 15.334C81.7388 14.7647 81.5802 14.1113 81.5802 13.374C81.5802 12.6273 81.7342 11.9647 82.0422 11.386C82.3502 10.8073 82.7795 10.3547 83.3302 10.028C83.8808 9.692 84.5108 9.524 85.2202 9.524C85.8735 9.524 86.4475 9.678 86.9422 9.986C87.4462 10.2847 87.8335 10.7 88.1042 11.232C88.3748 11.7547 88.5008 12.3613 88.4822 13.052L88.4682 13.542H82.6722C82.7188 14.3353 82.9895 14.9653 83.4842 15.432C83.9788 15.8987 84.6368 16.132 85.4582 16.132C85.8128 16.132 86.1582 16.076 86.4942 15.964C86.8395 15.8427 87.2175 15.6093 87.6282 15.264L88.1742 16.034C87.8475 16.3513 87.4322 16.6173 86.9282 16.832C86.4242 17.0373 85.8922 17.14 85.3322 17.14ZM85.2062 10.532C84.5342 10.532 83.9788 10.714 83.5402 11.078C83.1015 11.4327 82.8262 11.9553 82.7142 12.646H87.4042V12.562C87.3855 12.226 87.2875 11.904 87.1102 11.596C86.9328 11.2787 86.6808 11.022 86.3542 10.826C86.0368 10.63 85.6542 10.532 85.2062 10.532ZM92.8428 17.14C92.2082 17.14 91.6342 16.9767 91.1208 16.65C90.6075 16.314 90.2015 15.8613 89.9028 15.292C89.6042 14.7133 89.4548 14.06 89.4548 13.332C89.4548 12.5947 89.6088 11.9413 89.9168 11.372C90.2248 10.7933 90.6402 10.3407 91.1628 10.014C91.6855 9.68733 92.2688 9.524 92.9128 9.524C93.5008 9.524 94.0235 9.65933 94.4808 9.93C94.9475 10.2007 95.3022 10.5507 95.5448 10.98L95.5728 9.678H96.6368V17H95.5588V15.698C95.2975 16.1087 94.9242 16.454 94.4388 16.734C93.9535 17.0047 93.4215 17.14 92.8428 17.14ZM93.0808 16.118C93.5662 16.118 94.0002 16.0013 94.3828 15.768C94.7655 15.5253 95.0642 15.194 95.2788 14.774C95.5028 14.354 95.6148 13.8687 95.6148 13.318C95.6148 12.786 95.5028 12.31 95.2788 11.89C95.0642 11.47 94.7655 11.1433 94.3828 10.91C94.0002 10.6673 93.5662 10.546 93.0808 10.546C92.5862 10.546 92.1475 10.6673 91.7648 10.91C91.3915 11.1433 91.0975 11.47 90.8828 11.89C90.6682 12.31 90.5608 12.786 90.5608 13.318C90.5608 13.8593 90.6682 14.3447 90.8828 14.774C91.0975 15.194 91.3915 15.5253 91.7648 15.768C92.1475 16.0013 92.5862 16.118 93.0808 16.118ZM101.65 17.14C100.978 17.14 100.376 16.9767 99.8445 16.65C99.3218 16.3233 98.9065 15.8753 98.5985 15.306C98.2998 14.7273 98.1505 14.0693 98.1505 13.332C98.1505 12.604 98.3045 11.9553 98.6125 11.386C98.9205 10.8073 99.3358 10.3547 99.8585 10.028C100.381 9.692 100.969 9.524 101.622 9.524C102.182 9.524 102.696 9.65467 103.162 9.916C103.638 10.168 104.007 10.4807 104.268 10.854V6.64H105.332V17H104.282L104.254 15.768C104.021 16.1507 103.666 16.4773 103.19 16.748C102.714 17.0093 102.201 17.14 101.65 17.14ZM101.79 16.16C102.276 16.16 102.71 16.0387 103.092 15.796C103.475 15.5533 103.774 15.222 103.988 14.802C104.212 14.3727 104.324 13.8827 104.324 13.332C104.324 12.7813 104.212 12.296 103.988 11.876C103.774 11.4467 103.475 11.1107 103.092 10.868C102.71 10.6253 102.276 10.504 101.79 10.504C101.296 10.504 100.857 10.6253 100.474 10.868C100.092 11.1107 99.7932 11.4467 99.5785 11.876C99.3638 12.296 99.2565 12.7813 99.2565 13.332C99.2565 13.8733 99.3638 14.3587 99.5785 14.788C99.7932 15.2173 100.092 15.5533 100.474 15.796C100.857 16.0387 101.296 16.16 101.79 16.16ZM111.385 19.702V6.64H112.393V19.702H111.385ZM118.732 17L118.396 16.174L121.686 12.478C121.891 12.2447 122.11 11.974 122.344 11.666C122.577 11.3487 122.778 11.022 122.946 10.686C123.114 10.35 123.198 10.028 123.198 9.72C123.198 9.216 123.03 8.824 122.694 8.544C122.358 8.25467 121.919 8.11 121.378 8.11C120.911 8.11 120.449 8.278 119.992 8.614C119.544 8.94067 119.222 9.46333 119.026 10.182L118.144 9.65C118.386 8.80067 118.806 8.15667 119.404 7.718C120.01 7.27933 120.71 7.06 121.504 7.06C122.036 7.06 122.516 7.172 122.946 7.396C123.375 7.61067 123.716 7.91867 123.968 8.32C124.22 8.712 124.346 9.16467 124.346 9.678C124.346 10.2473 124.187 10.812 123.87 11.372C123.552 11.932 123.104 12.534 122.526 13.178L120.048 15.936H124.654V17H118.732ZM128.698 17.098C128.054 17.098 127.47 16.9533 126.948 16.664C126.425 16.3653 125.991 15.9407 125.646 15.39L126.304 14.662C126.705 15.1847 127.102 15.5487 127.494 15.754C127.886 15.95 128.292 16.048 128.712 16.048C129.16 16.048 129.566 15.9453 129.93 15.74C130.294 15.5347 130.583 15.2547 130.798 14.9C131.012 14.5453 131.12 14.1533 131.12 13.724C131.12 13.304 131.022 12.926 130.826 12.59C130.639 12.2447 130.373 11.974 130.028 11.778C129.692 11.582 129.309 11.484 128.88 11.484C128.226 11.484 127.494 11.7173 126.682 12.184L126.052 11.358L126.626 7.2H131.918V8.222H127.522L127.116 10.91C127.377 10.7793 127.68 10.672 128.026 10.588C128.371 10.4947 128.712 10.448 129.048 10.448C129.645 10.448 130.182 10.588 130.658 10.868C131.134 11.1387 131.512 11.5167 131.792 12.002C132.072 12.478 132.212 13.0287 132.212 13.654C132.212 14.3073 132.058 14.8953 131.75 15.418C131.442 15.9313 131.022 16.342 130.49 16.65C129.958 16.9487 129.36 17.098 128.698 17.098ZM137.33 17L141.096 7.2H142.342L146.066 17H144.862L143.854 14.298H139.486L138.464 17H137.33ZM140.844 10.728L139.892 13.22H143.448L142.482 10.658C142.37 10.3593 142.235 9.99067 142.076 9.552C141.927 9.104 141.792 8.69333 141.67 8.32C141.54 8.72133 141.404 9.12733 141.264 9.538C141.124 9.94867 140.984 10.3453 140.844 10.728ZM147.436 20.08V9.678H148.5L148.514 11.008C148.747 10.5973 149.107 10.252 149.592 9.972C150.077 9.68267 150.6 9.538 151.16 9.538C151.813 9.538 152.401 9.70133 152.924 10.028C153.447 10.3547 153.857 10.8073 154.156 11.386C154.464 11.9553 154.618 12.604 154.618 13.332C154.618 14.06 154.469 14.7133 154.17 15.292C153.871 15.8613 153.461 16.3093 152.938 16.636C152.425 16.9627 151.841 17.126 151.188 17.126C150.619 17.126 150.091 16.9907 149.606 16.72C149.121 16.4493 148.757 16.1133 148.514 15.712V20.08H147.436ZM151.006 16.118C151.501 16.118 151.939 15.9967 152.322 15.754C152.705 15.5113 153.003 15.18 153.218 14.76C153.442 14.34 153.554 13.864 153.554 13.332C153.554 12.8 153.442 12.324 153.218 11.904C153.003 11.484 152.705 11.1573 152.322 10.924C151.939 10.6813 151.501 10.56 151.006 10.56C150.511 10.56 150.068 10.6813 149.676 10.924C149.293 11.1573 148.99 11.484 148.766 11.904C148.551 12.3147 148.444 12.7907 148.444 13.332C148.444 13.8733 148.556 14.354 148.78 14.774C149.004 15.194 149.307 15.5253 149.69 15.768C150.073 16.0013 150.511 16.118 151.006 16.118ZM156.145 17V9.678H157.209L157.223 11.092C157.419 10.6533 157.718 10.2847 158.119 9.986C158.52 9.678 158.978 9.524 159.491 9.524C159.65 9.524 159.799 9.538 159.939 9.566C160.079 9.594 160.196 9.622 160.289 9.65L159.995 10.84C159.752 10.7373 159.51 10.686 159.267 10.686C158.847 10.686 158.483 10.7887 158.175 10.994C157.867 11.19 157.629 11.4513 157.461 11.778C157.302 12.1047 157.223 12.464 157.223 12.856V17H156.145ZM165.585 17L165.249 16.174L168.539 12.478C168.745 12.2447 168.964 11.974 169.197 11.666C169.431 11.3487 169.631 11.022 169.799 10.686C169.967 10.35 170.051 10.028 170.051 9.72C170.051 9.216 169.883 8.824 169.547 8.544C169.211 8.25467 168.773 8.11 168.231 8.11C167.765 8.11 167.303 8.278 166.845 8.614C166.397 8.94067 166.075 9.46333 165.879 10.182L164.997 9.65C165.24 8.80067 165.66 8.15667 166.257 7.718C166.864 7.27933 167.564 7.06 168.357 7.06C168.889 7.06 169.37 7.172 169.799 7.396C170.229 7.61067 170.569 7.91867 170.821 8.32C171.073 8.712 171.199 9.16467 171.199 9.678C171.199 10.2473 171.041 10.812 170.723 11.372C170.406 11.932 169.958 12.534 169.379 13.178L166.901 15.936H171.507V17H165.585ZM176.237 17.14C175.098 17.14 174.212 16.6967 173.577 15.81C172.942 14.914 172.625 13.6773 172.625 12.1C172.625 10.5133 172.942 9.27667 173.577 8.39C174.212 7.50333 175.098 7.06 176.237 7.06C177.366 7.06 178.248 7.50333 178.883 8.39C179.527 9.27667 179.849 10.5133 179.849 12.1C179.849 13.6773 179.527 14.914 178.883 15.81C178.248 16.6967 177.366 17.14 176.237 17.14ZM176.237 16.104C177.03 16.104 177.646 15.7587 178.085 15.068C178.524 14.368 178.743 13.3787 178.743 12.1C178.743 10.8213 178.524 9.83667 178.085 9.146C177.646 8.446 177.03 8.096 176.237 8.096C175.434 8.096 174.814 8.446 174.375 9.146C173.946 9.83667 173.731 10.8213 173.731 12.1C173.731 13.3787 173.946 14.368 174.375 15.068C174.814 15.7587 175.434 16.104 176.237 16.104ZM181.827 17L181.491 16.174L184.781 12.478C184.987 12.2447 185.206 11.974 185.439 11.666C185.673 11.3487 185.873 11.022 186.041 10.686C186.209 10.35 186.293 10.028 186.293 9.72C186.293 9.216 186.125 8.824 185.789 8.544C185.453 8.25467 185.015 8.11 184.473 8.11C184.007 8.11 183.545 8.278 183.087 8.614C182.639 8.94067 182.317 9.46333 182.121 10.182L181.239 9.65C181.482 8.80067 181.902 8.15667 182.499 7.718C183.106 7.27933 183.806 7.06 184.599 7.06C185.131 7.06 185.612 7.172 186.041 7.396C186.471 7.61067 186.811 7.91867 187.063 8.32C187.315 8.712 187.441 9.16467 187.441 9.678C187.441 10.2473 187.283 10.812 186.965 11.372C186.648 11.932 186.2 12.534 185.621 13.178L183.143 15.936H187.749V17H181.827ZM189.665 17V15.922H191.107V8.628L189.679 9.482L189.371 8.474L191.793 7.06H192.213V15.922H193.697V17H189.665Z" fill="#888B97"/>
</svg>
