<svg width="340" height="24" viewBox="0 0 340 24" fill="none" xmlns="http://www.w3.org/2000/svg">
<path d="M11.99 2C6.47 2 2 6.48 2 12C2 17.52 6.47 22 11.99 22C17.52 22 22 17.52 22 12C22 6.48 17.52 2 11.99 2ZM16 16C15.9075 16.0927 15.7976 16.1663 15.6766 16.2164C15.5557 16.2666 15.426 16.2924 15.295 16.2924C15.164 16.2924 15.0343 16.2666 14.9134 16.2164C14.7924 16.1663 14.6825 16.0927 14.59 16L11.3 12.71C11.2055 12.6174 11.1303 12.5069 11.0788 12.3851C11.0273 12.2632 11.0005 12.1323 11 12V8C11 7.45 11.45 7 12 7C12.55 7 13 7.45 13 8V11.59L16 14.59C16.39 14.98 16.39 15.61 16 16Z" fill="#888B97"/>
<path d="M37.302 17L36.966 16.174L40.256 12.478C40.4613 12.2447 40.6807 11.974 40.914 11.666C41.1473 11.3487 41.348 11.022 41.516 10.686C41.684 10.35 41.768 10.028 41.768 9.72C41.768 9.216 41.6 8.824 41.264 8.544C40.928 8.25467 40.4893 8.11 39.948 8.11C39.4813 8.11 39.0193 8.278 38.562 8.614C38.114 8.94067 37.792 9.46333 37.596 10.182L36.714 9.65C36.9567 8.80067 37.3767 8.15667 37.974 7.718C38.5807 7.27933 39.2807 7.06 40.074 7.06C40.606 7.06 41.0867 7.172 41.516 7.396C41.9453 7.61067 42.286 7.91867 42.538 8.32C42.79 8.712 42.916 9.16467 42.916 9.678C42.916 10.2473 42.7573 10.812 42.44 11.372C42.1227 11.932 41.6747 12.534 41.096 13.178L38.618 15.936H43.224V17H37.302ZM48.6018 17V9.678H49.6658L49.6798 10.938C49.9224 10.518 50.2678 10.182 50.7158 9.93C51.1638 9.66867 51.6491 9.538 52.1718 9.538C52.6944 9.538 53.1378 9.65933 53.5018 9.902C53.8751 10.1447 54.1551 10.56 54.3418 11.148C54.4818 10.8587 54.6871 10.5927 54.9578 10.35C55.2284 10.1073 55.5364 9.91133 55.8818 9.762C56.2364 9.61267 56.6098 9.538 57.0018 9.538C57.7764 9.538 58.3644 9.79 58.7658 10.294C59.1764 10.7887 59.3818 11.554 59.3818 12.59V17H58.3038V12.646C58.3038 11.9273 58.1684 11.4 57.8978 11.064C57.6271 10.7187 57.2211 10.546 56.6798 10.546C56.2598 10.546 55.8864 10.6393 55.5598 10.826C55.2331 11.0127 54.9764 11.26 54.7897 11.568C54.6124 11.876 54.5238 12.212 54.5238 12.576V17H53.4458V12.632C53.4458 11.2413 52.9044 10.546 51.8218 10.546C51.4111 10.546 51.0424 10.6393 50.7158 10.826C50.3891 11.0033 50.1324 11.246 49.9458 11.554C49.7684 11.862 49.6798 12.198 49.6798 12.562V17H48.6018ZM62.0436 8.11C61.7823 8.11 61.5816 8.04467 61.4416 7.914C61.3016 7.774 61.2316 7.58267 61.2316 7.34C61.2316 7.10667 61.3016 6.92 61.4416 6.78C61.5816 6.64 61.7823 6.57 62.0436 6.57C62.2956 6.57 62.4916 6.64 62.6316 6.78C62.7716 6.91067 62.8416 7.09733 62.8416 7.34C62.8416 7.57333 62.7716 7.76 62.6316 7.9C62.4916 8.04 62.2956 8.11 62.0436 8.11ZM61.5116 17V9.678H62.5896V17H61.5116ZM64.7212 17V9.678H65.7712L65.7992 10.924C66.0232 10.532 66.3686 10.2007 66.8352 9.93C67.3112 9.65933 67.8106 9.524 68.3332 9.524C69.1452 9.524 69.7566 9.776 70.1672 10.28C70.5872 10.7747 70.7972 11.5307 70.7972 12.548V17H69.7192V12.618C69.7192 11.19 69.1452 10.49 67.9972 10.518C67.5679 10.518 67.1852 10.6113 66.8492 10.798C66.5226 10.9847 66.2612 11.232 66.0652 11.54C65.8786 11.848 65.7852 12.184 65.7852 12.548V17H64.7212ZM76.7251 17V9.678H77.7891L77.8031 11.092C77.9991 10.6533 78.2978 10.2847 78.6991 9.986C79.1005 9.678 79.5578 9.524 80.0711 9.524C80.2298 9.524 80.3791 9.538 80.5191 9.566C80.6591 9.594 80.7758 9.622 80.8691 9.65L80.5751 10.84C80.3325 10.7373 80.0898 10.686 79.8471 10.686C79.4271 10.686 79.0631 10.7887 78.7551 10.994C78.4471 11.19 78.2091 11.4513 78.0411 11.778C77.8825 12.1047 77.8031 12.464 77.8031 12.856V17H76.7251ZM84.881 17.14C84.1437 17.14 83.4903 16.9813 82.921 16.664C82.361 16.3467 81.9223 15.9033 81.605 15.334C81.2877 14.7647 81.129 14.1113 81.129 13.374C81.129 12.6273 81.283 11.9647 81.591 11.386C81.899 10.8073 82.3283 10.3547 82.879 10.028C83.4297 9.692 84.0597 9.524 84.769 9.524C85.4223 9.524 85.9963 9.678 86.491 9.986C86.995 10.2847 87.3823 10.7 87.653 11.232C87.9237 11.7547 88.0497 12.3613 88.031 13.052L88.017 13.542H82.221C82.2677 14.3353 82.5383 14.9653 83.033 15.432C83.5277 15.8987 84.1857 16.132 85.007 16.132C85.3617 16.132 85.707 16.076 86.043 15.964C86.3883 15.8427 86.7663 15.6093 87.177 15.264L87.723 16.034C87.3963 16.3513 86.981 16.6173 86.477 16.832C85.973 17.0373 85.441 17.14 84.881 17.14ZM84.755 10.532C84.083 10.532 83.5277 10.714 83.089 11.078C82.6503 11.4327 82.375 11.9553 82.263 12.646H86.953V12.562C86.9343 12.226 86.8363 11.904 86.659 11.596C86.4817 11.2787 86.2297 11.022 85.903 10.826C85.5857 10.63 85.203 10.532 84.755 10.532ZM92.3917 17.14C91.757 17.14 91.183 16.9767 90.6697 16.65C90.1563 16.314 89.7503 15.8613 89.4517 15.292C89.153 14.7133 89.0037 14.06 89.0037 13.332C89.0037 12.5947 89.1577 11.9413 89.4657 11.372C89.7737 10.7933 90.189 10.3407 90.7117 10.014C91.2343 9.68733 91.8177 9.524 92.4617 9.524C93.0497 9.524 93.5723 9.65933 94.0297 9.93C94.4963 10.2007 94.851 10.5507 95.0937 10.98L95.1217 9.678H96.1857V17H95.1077V15.698C94.8463 16.1087 94.473 16.454 93.9877 16.734C93.5023 17.0047 92.9703 17.14 92.3917 17.14ZM92.6297 16.118C93.115 16.118 93.549 16.0013 93.9317 15.768C94.3143 15.5253 94.613 15.194 94.8277 14.774C95.0517 14.354 95.1637 13.8687 95.1637 13.318C95.1637 12.786 95.0517 12.31 94.8277 11.89C94.613 11.47 94.3143 11.1433 93.9317 10.91C93.549 10.6673 93.115 10.546 92.6297 10.546C92.135 10.546 91.6963 10.6673 91.3137 10.91C90.9403 11.1433 90.6463 11.47 90.4317 11.89C90.217 12.31 90.1097 12.786 90.1097 13.318C90.1097 13.8593 90.217 14.3447 90.4317 14.774C90.6463 15.194 90.9403 15.5253 91.3137 15.768C91.6963 16.0013 92.135 16.118 92.6297 16.118ZM101.199 17.14C100.527 17.14 99.9253 16.9767 99.3933 16.65C98.8706 16.3233 98.4553 15.8753 98.1473 15.306C97.8486 14.7273 97.6993 14.0693 97.6993 13.332C97.6993 12.604 97.8533 11.9553 98.1613 11.386C98.4693 10.8073 98.8846 10.3547 99.4073 10.028C99.93 9.692 100.518 9.524 101.171 9.524C101.731 9.524 102.245 9.65467 102.711 9.916C103.187 10.168 103.556 10.4807 103.817 10.854V6.64H104.881V17H103.831L103.803 15.768C103.57 16.1507 103.215 16.4773 102.739 16.748C102.263 17.0093 101.75 17.14 101.199 17.14ZM101.339 16.16C101.825 16.16 102.259 16.0387 102.641 15.796C103.024 15.5533 103.323 15.222 103.537 14.802C103.761 14.3727 103.873 13.8827 103.873 13.332C103.873 12.7813 103.761 12.296 103.537 11.876C103.323 11.4467 103.024 11.1107 102.641 10.868C102.259 10.6253 101.825 10.504 101.339 10.504C100.845 10.504 100.406 10.6253 100.023 10.868C99.6406 11.1107 99.342 11.4467 99.1273 11.876C98.9126 12.296 98.8053 12.7813 98.8053 13.332C98.8053 13.8733 98.9126 14.3587 99.1273 14.788C99.342 15.2173 99.6406 15.5533 100.023 15.796C100.406 16.0387 100.845 16.16 101.339 16.16ZM110.934 19.702V6.64H111.942V19.702H110.934ZM118.281 17L117.945 16.174L121.235 12.478C121.44 12.2447 121.659 11.974 121.893 11.666C122.126 11.3487 122.327 11.022 122.495 10.686C122.663 10.35 122.747 10.028 122.747 9.72C122.747 9.216 122.579 8.824 122.243 8.544C121.907 8.25467 121.468 8.11 120.927 8.11C120.46 8.11 119.998 8.278 119.541 8.614C119.093 8.94067 118.771 9.46333 118.575 10.182L117.693 9.65C117.935 8.80067 118.355 8.15667 118.953 7.718C119.559 7.27933 120.259 7.06 121.053 7.06C121.585 7.06 122.065 7.172 122.495 7.396C122.924 7.61067 123.265 7.91867 123.517 8.32C123.769 8.712 123.895 9.16467 123.895 9.678C123.895 10.2473 123.736 10.812 123.419 11.372C123.101 11.932 122.653 12.534 122.075 13.178L119.597 15.936H124.203V17H118.281ZM129.681 17V14.34H125.439L124.907 13.29L129.891 7.2H130.759V13.29H132.467V14.34H130.759V17H129.681ZM126.153 13.29H129.681V8.992L126.153 13.29ZM137.33 17L141.096 7.2H142.342L146.066 17H144.862L143.854 14.298H139.486L138.464 17H137.33ZM140.844 10.728L139.892 13.22H143.448L142.482 10.658C142.37 10.3593 142.235 9.99067 142.076 9.552C141.927 9.104 141.792 8.69333 141.67 8.32C141.54 8.72133 141.404 9.12733 141.264 9.538C141.124 9.94867 140.984 10.3453 140.844 10.728ZM147.436 20.08V9.678H148.5L148.514 11.008C148.747 10.5973 149.107 10.252 149.592 9.972C150.077 9.68267 150.6 9.538 151.16 9.538C151.813 9.538 152.401 9.70133 152.924 10.028C153.447 10.3547 153.857 10.8073 154.156 11.386C154.464 11.9553 154.618 12.604 154.618 13.332C154.618 14.06 154.469 14.7133 154.17 15.292C153.871 15.8613 153.461 16.3093 152.938 16.636C152.425 16.9627 151.841 17.126 151.188 17.126C150.619 17.126 150.091 16.9907 149.606 16.72C149.121 16.4493 148.757 16.1133 148.514 15.712V20.08H147.436ZM151.006 16.118C151.501 16.118 151.939 15.9967 152.322 15.754C152.705 15.5113 153.003 15.18 153.218 14.76C153.442 14.34 153.554 13.864 153.554 13.332C153.554 12.8 153.442 12.324 153.218 11.904C153.003 11.484 152.705 11.1573 152.322 10.924C151.939 10.6813 151.501 10.56 151.006 10.56C150.511 10.56 150.068 10.6813 149.676 10.924C149.293 11.1573 148.99 11.484 148.766 11.904C148.551 12.3147 148.444 12.7907 148.444 13.332C148.444 13.8733 148.556 14.354 148.78 14.774C149.004 15.194 149.307 15.5253 149.69 15.768C150.073 16.0013 150.511 16.118 151.006 16.118ZM156.145 17V9.678H157.209L157.223 11.092C157.419 10.6533 157.718 10.2847 158.119 9.986C158.52 9.678 158.978 9.524 159.491 9.524C159.65 9.524 159.799 9.538 159.939 9.566C160.079 9.594 160.196 9.622 160.289 9.65L159.995 10.84C159.752 10.7373 159.51 10.686 159.267 10.686C158.847 10.686 158.483 10.7887 158.175 10.994C157.867 11.19 157.629 11.4513 157.461 11.778C157.302 12.1047 157.223 12.464 157.223 12.856V17H156.145ZM165.585 17L165.249 16.174L168.539 12.478C168.745 12.2447 168.964 11.974 169.197 11.666C169.431 11.3487 169.631 11.022 169.799 10.686C169.967 10.35 170.051 10.028 170.051 9.72C170.051 9.216 169.883 8.824 169.547 8.544C169.211 8.25467 168.773 8.11 168.231 8.11C167.765 8.11 167.303 8.278 166.845 8.614C166.397 8.94067 166.075 9.46333 165.879 10.182L164.997 9.65C165.24 8.80067 165.66 8.15667 166.257 7.718C166.864 7.27933 167.564 7.06 168.357 7.06C168.889 7.06 169.37 7.172 169.799 7.396C170.229 7.61067 170.569 7.91867 170.821 8.32C171.073 8.712 171.199 9.16467 171.199 9.678C171.199 10.2473 171.041 10.812 170.723 11.372C170.406 11.932 169.958 12.534 169.379 13.178L166.901 15.936H171.507V17H165.585ZM176.237 17.14C175.098 17.14 174.212 16.6967 173.577 15.81C172.942 14.914 172.625 13.6773 172.625 12.1C172.625 10.5133 172.942 9.27667 173.577 8.39C174.212 7.50333 175.098 7.06 176.237 7.06C177.366 7.06 178.248 7.50333 178.883 8.39C179.527 9.27667 179.849 10.5133 179.849 12.1C179.849 13.6773 179.527 14.914 178.883 15.81C178.248 16.6967 177.366 17.14 176.237 17.14ZM176.237 16.104C177.03 16.104 177.646 15.7587 178.085 15.068C178.524 14.368 178.743 13.3787 178.743 12.1C178.743 10.8213 178.524 9.83667 178.085 9.146C177.646 8.446 177.03 8.096 176.237 8.096C175.434 8.096 174.814 8.446 174.375 9.146C173.946 9.83667 173.731 10.8213 173.731 12.1C173.731 13.3787 173.946 14.368 174.375 15.068C174.814 15.7587 175.434 16.104 176.237 16.104ZM181.827 17L181.491 16.174L184.781 12.478C184.987 12.2447 185.206 11.974 185.439 11.666C185.673 11.3487 185.873 11.022 186.041 10.686C186.209 10.35 186.293 10.028 186.293 9.72C186.293 9.216 186.125 8.824 185.789 8.544C185.453 8.25467 185.015 8.11 184.473 8.11C184.007 8.11 183.545 8.278 183.087 8.614C182.639 8.94067 182.317 9.46333 182.121 10.182L181.239 9.65C181.482 8.80067 181.902 8.15667 182.499 7.718C183.106 7.27933 183.806 7.06 184.599 7.06C185.131 7.06 185.612 7.172 186.041 7.396C186.471 7.61067 186.811 7.91867 187.063 8.32C187.315 8.712 187.441 9.16467 187.441 9.678C187.441 10.2473 187.283 10.812 186.965 11.372C186.648 11.932 186.2 12.534 185.621 13.178L183.143 15.936H187.749V17H181.827ZM189.665 17V15.922H191.107V8.628L189.679 9.482L189.371 8.474L191.793 7.06H192.213V15.922H193.697V17H189.665Z" fill="#888B97"/>
</svg>
