<svg width="340" height="24" viewBox="0 0 340 24" fill="none" xmlns="http://www.w3.org/2000/svg">
<path d="M11.99 2C6.47 2 2 6.48 2 12C2 17.52 6.47 22 11.99 22C17.52 22 22 17.52 22 12C22 6.48 17.52 2 11.99 2ZM16 16C15.9075 16.0927 15.7976 16.1663 15.6766 16.2164C15.5557 16.2666 15.426 16.2924 15.295 16.2924C15.164 16.2924 15.0343 16.2666 14.9134 16.2164C14.7924 16.1663 14.6825 16.0927 14.59 16L11.3 12.71C11.2055 12.6174 11.1303 12.5069 11.0788 12.3851C11.0273 12.2632 11.0005 12.1323 11 12V8C11 7.45 11.45 7 12 7C12.55 7 13 7.45 13 8V11.59L16 14.59C16.39 14.98 16.39 15.61 16 16Z" fill="#888B97"/>
<path d="M41.306 17V14.34H37.064L36.532 13.29L41.516 7.2H42.384V13.29H44.092V14.34H42.384V17H41.306ZM37.778 13.29H41.306V8.992L37.778 13.29ZM49.6135 17V9.678H50.6775L50.6915 10.938C50.9341 10.518 51.2795 10.182 51.7275 9.93C52.1755 9.66867 52.6608 9.538 53.1835 9.538C53.7061 9.538 54.1495 9.65933 54.5135 9.902C54.8868 10.1447 55.1668 10.56 55.3535 11.148C55.4935 10.8587 55.6988 10.5927 55.9695 10.35C56.2401 10.1073 56.5481 9.91133 56.8935 9.762C57.2481 9.61267 57.6215 9.538 58.0135 9.538C58.7881 9.538 59.3761 9.79 59.7775 10.294C60.1881 10.7887 60.3935 11.554 60.3935 12.59V17H59.3155V12.646C59.3155 11.9273 59.1801 11.4 58.9095 11.064C58.6388 10.7187 58.2328 10.546 57.6915 10.546C57.2715 10.546 56.8981 10.6393 56.5715 10.826C56.2448 11.0127 55.9881 11.26 55.8015 11.568C55.6241 11.876 55.5355 12.212 55.5355 12.576V17H54.4575V12.632C54.4575 11.2413 53.9161 10.546 52.8335 10.546C52.4228 10.546 52.0541 10.6393 51.7275 10.826C51.4008 11.0033 51.1441 11.246 50.9575 11.554C50.7801 11.862 50.6915 12.198 50.6915 12.562V17H49.6135ZM63.0553 8.11C62.794 8.11 62.5933 8.04467 62.4533 7.914C62.3133 7.774 62.2433 7.58267 62.2433 7.34C62.2433 7.10667 62.3133 6.92 62.4533 6.78C62.5933 6.64 62.794 6.57 63.0553 6.57C63.3073 6.57 63.5033 6.64 63.6433 6.78C63.7833 6.91067 63.8533 7.09733 63.8533 7.34C63.8533 7.57333 63.7833 7.76 63.6433 7.9C63.5033 8.04 63.3073 8.11 63.0553 8.11ZM62.5233 17V9.678H63.6013V17H62.5233ZM65.7329 17V9.678H66.7829L66.8109 10.924C67.0349 10.532 67.3803 10.2007 67.8469 9.93C68.3229 9.65933 68.8223 9.524 69.3449 9.524C70.1569 9.524 70.7683 9.776 71.1789 10.28C71.5989 10.7747 71.8089 11.5307 71.8089 12.548V17H70.7309V12.618C70.7309 11.19 70.1569 10.49 69.0089 10.518C68.5796 10.518 68.1969 10.6113 67.8609 10.798C67.5343 10.9847 67.2729 11.232 67.0769 11.54C66.8903 11.848 66.7969 12.184 66.7969 12.548V17H65.7329ZM77.7368 17V9.678H78.8008L78.8148 11.092C79.0108 10.6533 79.3095 10.2847 79.7108 9.986C80.1122 9.678 80.5695 9.524 81.0828 9.524C81.2415 9.524 81.3908 9.538 81.5308 9.566C81.6708 9.594 81.7875 9.622 81.8808 9.65L81.5868 10.84C81.3442 10.7373 81.1015 10.686 80.8588 10.686C80.4388 10.686 80.0748 10.7887 79.7668 10.994C79.4588 11.19 79.2208 11.4513 79.0528 11.778C78.8942 12.1047 78.8148 12.464 78.8148 12.856V17H77.7368ZM85.8927 17.14C85.1554 17.14 84.5021 16.9813 83.9327 16.664C83.3727 16.3467 82.9341 15.9033 82.6167 15.334C82.2994 14.7647 82.1407 14.1113 82.1407 13.374C82.1407 12.6273 82.2947 11.9647 82.6027 11.386C82.9107 10.8073 83.3401 10.3547 83.8907 10.028C84.4414 9.692 85.0714 9.524 85.7807 9.524C86.4341 9.524 87.0081 9.678 87.5027 9.986C88.0067 10.2847 88.3941 10.7 88.6647 11.232C88.9354 11.7547 89.0614 12.3613 89.0427 13.052L89.0287 13.542H83.2327C83.2794 14.3353 83.5501 14.9653 84.0447 15.432C84.5394 15.8987 85.1974 16.132 86.0187 16.132C86.3734 16.132 86.7187 16.076 87.0547 15.964C87.4001 15.8427 87.7781 15.6093 88.1887 15.264L88.7347 16.034C88.4081 16.3513 87.9927 16.6173 87.4887 16.832C86.9847 17.0373 86.4527 17.14 85.8927 17.14ZM85.7667 10.532C85.0947 10.532 84.5394 10.714 84.1007 11.078C83.6621 11.4327 83.3867 11.9553 83.2747 12.646H87.9647V12.562C87.9461 12.226 87.8481 11.904 87.6707 11.596C87.4934 11.2787 87.2414 11.022 86.9147 10.826C86.5974 10.63 86.2147 10.532 85.7667 10.532ZM93.4034 17.14C92.7687 17.14 92.1947 16.9767 91.6814 16.65C91.1681 16.314 90.7621 15.8613 90.4634 15.292C90.1647 14.7133 90.0154 14.06 90.0154 13.332C90.0154 12.5947 90.1694 11.9413 90.4774 11.372C90.7854 10.7933 91.2007 10.3407 91.7234 10.014C92.2461 9.68733 92.8294 9.524 93.4734 9.524C94.0614 9.524 94.5841 9.65933 95.0414 9.93C95.5081 10.2007 95.8627 10.5507 96.1054 10.98L96.1334 9.678H97.1974V17H96.1194V15.698C95.8581 16.1087 95.4847 16.454 94.9994 16.734C94.5141 17.0047 93.9821 17.14 93.4034 17.14ZM93.6414 16.118C94.1267 16.118 94.5607 16.0013 94.9434 15.768C95.3261 15.5253 95.6247 15.194 95.8394 14.774C96.0634 14.354 96.1754 13.8687 96.1754 13.318C96.1754 12.786 96.0634 12.31 95.8394 11.89C95.6247 11.47 95.3261 11.1433 94.9434 10.91C94.5607 10.6673 94.1267 10.546 93.6414 10.546C93.1467 10.546 92.7081 10.6673 92.3254 10.91C91.9521 11.1433 91.6581 11.47 91.4434 11.89C91.2287 12.31 91.1214 12.786 91.1214 13.318C91.1214 13.8593 91.2287 14.3447 91.4434 14.774C91.6581 15.194 91.9521 15.5253 92.3254 15.768C92.7081 16.0013 93.1467 16.118 93.6414 16.118ZM102.211 17.14C101.539 17.14 100.937 16.9767 100.405 16.65C99.8824 16.3233 99.467 15.8753 99.159 15.306C98.8604 14.7273 98.711 14.0693 98.711 13.332C98.711 12.604 98.865 11.9553 99.173 11.386C99.481 10.8073 99.8964 10.3547 100.419 10.028C100.942 9.692 101.53 9.524 102.183 9.524C102.743 9.524 103.256 9.65467 103.723 9.916C104.199 10.168 104.568 10.4807 104.829 10.854V6.64H105.893V17H104.843L104.815 15.768C104.582 16.1507 104.227 16.4773 103.751 16.748C103.275 17.0093 102.762 17.14 102.211 17.14ZM102.351 16.16C102.836 16.16 103.27 16.0387 103.653 15.796C104.036 15.5533 104.334 15.222 104.549 14.802C104.773 14.3727 104.885 13.8827 104.885 13.332C104.885 12.7813 104.773 12.296 104.549 11.876C104.334 11.4467 104.036 11.1107 103.653 10.868C103.27 10.6253 102.836 10.504 102.351 10.504C101.856 10.504 101.418 10.6253 101.035 10.868C100.652 11.1107 100.354 11.4467 100.139 11.876C99.9244 12.296 99.817 12.7813 99.817 13.332C99.817 13.8733 99.9244 14.3587 100.139 14.788C100.354 15.2173 100.652 15.5533 101.035 15.796C101.418 16.0387 101.856 16.16 102.351 16.16ZM111.946 19.702V6.64H112.954V19.702H111.946ZM119.292 17L118.956 16.174L122.246 12.478C122.452 12.2447 122.671 11.974 122.904 11.666C123.138 11.3487 123.338 11.022 123.506 10.686C123.674 10.35 123.758 10.028 123.758 9.72C123.758 9.216 123.59 8.824 123.254 8.544C122.918 8.25467 122.48 8.11 121.938 8.11C121.472 8.11 121.01 8.278 120.552 8.614C120.104 8.94067 119.782 9.46333 119.586 10.182L118.704 9.65C118.947 8.80067 119.367 8.15667 119.964 7.718C120.571 7.27933 121.271 7.06 122.064 7.06C122.596 7.06 123.077 7.172 123.506 7.396C123.936 7.61067 124.276 7.91867 124.528 8.32C124.78 8.712 124.906 9.16467 124.906 9.678C124.906 10.2473 124.748 10.812 124.43 11.372C124.113 11.932 123.665 12.534 123.086 13.178L120.608 15.936H125.214V17H119.292ZM129.258 17.098C128.614 17.098 128.031 16.9533 127.508 16.664C126.985 16.3653 126.551 15.9407 126.206 15.39L126.864 14.662C127.265 15.1847 127.662 15.5487 128.054 15.754C128.446 15.95 128.852 16.048 129.272 16.048C129.72 16.048 130.126 15.9453 130.49 15.74C130.854 15.5347 131.143 15.2547 131.358 14.9C131.573 14.5453 131.68 14.1533 131.68 13.724C131.68 13.304 131.582 12.926 131.386 12.59C131.199 12.2447 130.933 11.974 130.588 11.778C130.252 11.582 129.869 11.484 129.44 11.484C128.787 11.484 128.054 11.7173 127.242 12.184L126.612 11.358L127.186 7.2H132.478V8.222H128.082L127.676 10.91C127.937 10.7793 128.241 10.672 128.586 10.588C128.931 10.4947 129.272 10.448 129.608 10.448C130.205 10.448 130.742 10.588 131.218 10.868C131.694 11.1387 132.072 11.5167 132.352 12.002C132.632 12.478 132.772 13.0287 132.772 13.654C132.772 14.3073 132.618 14.8953 132.31 15.418C132.002 15.9313 131.582 16.342 131.05 16.65C130.518 16.9487 129.921 17.098 129.258 17.098ZM137.891 17L141.657 7.2H142.903L146.627 17H145.423L144.415 14.298H140.047L139.025 17H137.891ZM141.405 10.728L140.453 13.22H144.009L143.043 10.658C142.931 10.3593 142.796 9.99067 142.637 9.552C142.488 9.104 142.352 8.69333 142.231 8.32C142.1 8.72133 141.965 9.12733 141.825 9.538C141.685 9.94867 141.545 10.3453 141.405 10.728ZM147.997 20.08V9.678H149.061L149.075 11.008C149.308 10.5973 149.667 10.252 150.153 9.972C150.638 9.68267 151.161 9.538 151.721 9.538C152.374 9.538 152.962 9.70133 153.485 10.028C154.007 10.3547 154.418 10.8073 154.717 11.386C155.025 11.9553 155.179 12.604 155.179 13.332C155.179 14.06 155.029 14.7133 154.731 15.292C154.432 15.8613 154.021 16.3093 153.499 16.636C152.985 16.9627 152.402 17.126 151.749 17.126C151.179 17.126 150.652 16.9907 150.167 16.72C149.681 16.4493 149.317 16.1133 149.075 15.712V20.08H147.997ZM151.567 16.118C152.061 16.118 152.5 15.9967 152.883 15.754C153.265 15.5113 153.564 15.18 153.779 14.76C154.003 14.34 154.115 13.864 154.115 13.332C154.115 12.8 154.003 12.324 153.779 11.904C153.564 11.484 153.265 11.1573 152.883 10.924C152.5 10.6813 152.061 10.56 151.567 10.56C151.072 10.56 150.629 10.6813 150.237 10.924C149.854 11.1573 149.551 11.484 149.327 11.904C149.112 12.3147 149.005 12.7907 149.005 13.332C149.005 13.8733 149.117 14.354 149.341 14.774C149.565 15.194 149.868 15.5253 150.251 15.768C150.633 16.0013 151.072 16.118 151.567 16.118ZM156.706 17V9.678H157.77L157.784 11.092C157.98 10.6533 158.278 10.2847 158.68 9.986C159.081 9.678 159.538 9.524 160.052 9.524C160.21 9.524 160.36 9.538 160.5 9.566C160.64 9.594 160.756 9.622 160.85 9.65L160.556 10.84C160.313 10.7373 160.07 10.686 159.828 10.686C159.408 10.686 159.044 10.7887 158.736 10.994C158.428 11.19 158.19 11.4513 158.022 11.778C157.863 12.1047 157.784 12.464 157.784 12.856V17H156.706ZM166.146 17L165.81 16.174L169.1 12.478C169.305 12.2447 169.524 11.974 169.758 11.666C169.991 11.3487 170.192 11.022 170.36 10.686C170.528 10.35 170.612 10.028 170.612 9.72C170.612 9.216 170.444 8.824 170.108 8.544C169.772 8.25467 169.333 8.11 168.792 8.11C168.325 8.11 167.863 8.278 167.406 8.614C166.958 8.94067 166.636 9.46333 166.44 10.182L165.558 9.65C165.8 8.80067 166.22 8.15667 166.818 7.718C167.424 7.27933 168.124 7.06 168.918 7.06C169.45 7.06 169.93 7.172 170.36 7.396C170.789 7.61067 171.13 7.91867 171.382 8.32C171.634 8.712 171.76 9.16467 171.76 9.678C171.76 10.2473 171.601 10.812 171.284 11.372C170.966 11.932 170.518 12.534 169.94 13.178L167.462 15.936H172.068V17H166.146ZM176.798 17.14C175.659 17.14 174.772 16.6967 174.138 15.81C173.503 14.914 173.186 13.6773 173.186 12.1C173.186 10.5133 173.503 9.27667 174.138 8.39C174.772 7.50333 175.659 7.06 176.798 7.06C177.927 7.06 178.809 7.50333 179.444 8.39C180.088 9.27667 180.41 10.5133 180.41 12.1C180.41 13.6773 180.088 14.914 179.444 15.81C178.809 16.6967 177.927 17.14 176.798 17.14ZM176.798 16.104C177.591 16.104 178.207 15.7587 178.646 15.068C179.084 14.368 179.304 13.3787 179.304 12.1C179.304 10.8213 179.084 9.83667 178.646 9.146C178.207 8.446 177.591 8.096 176.798 8.096C175.995 8.096 175.374 8.446 174.936 9.146C174.506 9.83667 174.292 10.8213 174.292 12.1C174.292 13.3787 174.506 14.368 174.936 15.068C175.374 15.7587 175.995 16.104 176.798 16.104ZM182.388 17L182.052 16.174L185.342 12.478C185.547 12.2447 185.767 11.974 186 11.666C186.233 11.3487 186.434 11.022 186.602 10.686C186.77 10.35 186.854 10.028 186.854 9.72C186.854 9.216 186.686 8.824 186.35 8.544C186.014 8.25467 185.575 8.11 185.034 8.11C184.567 8.11 184.105 8.278 183.648 8.614C183.2 8.94067 182.878 9.46333 182.682 10.182L181.8 9.65C182.043 8.80067 182.463 8.15667 183.06 7.718C183.667 7.27933 184.367 7.06 185.16 7.06C185.692 7.06 186.173 7.172 186.602 7.396C187.031 7.61067 187.372 7.91867 187.624 8.32C187.876 8.712 188.002 9.16467 188.002 9.678C188.002 10.2473 187.843 10.812 187.526 11.372C187.209 11.932 186.761 12.534 186.182 13.178L183.704 15.936H188.31V17H182.388ZM190.226 17V15.922H191.668V8.628L190.24 9.482L189.932 8.474L192.354 7.06H192.774V15.922H194.258V17H190.226Z" fill="#888B97"/>
</svg>
