<svg width="340" height="24" viewBox="0 0 340 24" fill="none" xmlns="http://www.w3.org/2000/svg">
<path d="M11.99 2C6.47 2 2 6.48 2 12C2 17.52 6.47 22 11.99 22C17.52 22 22 17.52 22 12C22 6.48 17.52 2 11.99 2ZM16 16C15.9075 16.0927 15.7976 16.1663 15.6766 16.2164C15.5557 16.2666 15.426 16.2924 15.295 16.2924C15.164 16.2924 15.0343 16.2666 14.9134 16.2164C14.7924 16.1663 14.6825 16.0927 14.59 16L11.3 12.71C11.2055 12.6174 11.1303 12.5069 11.0788 12.3851C11.0273 12.2632 11.0005 12.1323 11 12V8C11 7.45 11.45 7 12 7C12.55 7 13 7.45 13 8V11.59L16 14.59C16.39 14.98 16.39 15.61 16 16Z" fill="#888B97"/>
<path d="M40.088 17.07C39.4347 17.07 38.8513 16.9207 38.338 16.622C37.834 16.3233 37.4327 15.9127 37.134 15.39C36.8447 14.8673 36.7 14.2653 36.7 13.584C36.7 13.1173 36.826 12.534 37.078 11.834C37.3393 11.1247 37.7173 10.3547 38.212 9.524L39.64 7.116H40.718L40.774 7.256L39.192 9.902C39.0053 10.2193 38.828 10.5413 38.66 10.868C39.1547 10.5413 39.7007 10.378 40.298 10.378C40.858 10.378 41.3667 10.5273 41.824 10.826C42.2907 11.1153 42.664 11.5073 42.944 12.002C43.224 12.4873 43.364 13.024 43.364 13.612C43.364 14.2747 43.2147 14.8673 42.916 15.39C42.6267 15.9033 42.2347 16.314 41.74 16.622C41.2453 16.9207 40.6947 17.07 40.088 17.07ZM40.046 16.02C40.466 16.02 40.8393 15.922 41.166 15.726C41.502 15.5207 41.768 15.2453 41.964 14.9C42.16 14.5547 42.258 14.158 42.258 13.71C42.258 13.2993 42.16 12.9213 41.964 12.576C41.768 12.2307 41.502 11.9553 41.166 11.75C40.8393 11.5353 40.4707 11.428 40.06 11.428C39.6213 11.428 39.234 11.5307 38.898 11.736C38.562 11.9413 38.296 12.2167 38.1 12.562C37.904 12.9073 37.806 13.29 37.806 13.71C37.806 14.1487 37.8993 14.5453 38.086 14.9C38.282 15.2453 38.548 15.5207 38.884 15.726C39.2293 15.922 39.6167 16.02 40.046 16.02ZM48.9572 17V9.678H50.0212L50.0352 10.938C50.2779 10.518 50.6232 10.182 51.0712 9.93C51.5192 9.66867 52.0046 9.538 52.5272 9.538C53.0499 9.538 53.4932 9.65933 53.8572 9.902C54.2306 10.1447 54.5106 10.56 54.6972 11.148C54.8372 10.8587 55.0426 10.5927 55.3132 10.35C55.5839 10.1073 55.8919 9.91133 56.2372 9.762C56.5919 9.61267 56.9652 9.538 57.3572 9.538C58.1319 9.538 58.7199 9.79 59.1212 10.294C59.5319 10.7887 59.7372 11.554 59.7372 12.59V17H58.6592V12.646C58.6592 11.9273 58.5239 11.4 58.2532 11.064C57.9826 10.7187 57.5766 10.546 57.0352 10.546C56.6152 10.546 56.2419 10.6393 55.9152 10.826C55.5886 11.0127 55.3319 11.26 55.1452 11.568C54.9679 11.876 54.8792 12.212 54.8792 12.576V17H53.8012V12.632C53.8012 11.2413 53.2599 10.546 52.1772 10.546C51.7666 10.546 51.3979 10.6393 51.0712 10.826C50.7446 11.0033 50.4879 11.246 50.3012 11.554C50.1239 11.862 50.0352 12.198 50.0352 12.562V17H48.9572ZM62.3991 8.11C62.1377 8.11 61.9371 8.04467 61.7971 7.914C61.6571 7.774 61.5871 7.58267 61.5871 7.34C61.5871 7.10667 61.6571 6.92 61.7971 6.78C61.9371 6.64 62.1377 6.57 62.3991 6.57C62.6511 6.57 62.8471 6.64 62.9871 6.78C63.1271 6.91067 63.1971 7.09733 63.1971 7.34C63.1971 7.57333 63.1271 7.76 62.9871 7.9C62.8471 8.04 62.6511 8.11 62.3991 8.11ZM61.8671 17V9.678H62.9451V17H61.8671ZM65.0767 17V9.678H66.1267L66.1547 10.924C66.3787 10.532 66.724 10.2007 67.1907 9.93C67.6667 9.65933 68.166 9.524 68.6887 9.524C69.5007 9.524 70.112 9.776 70.5227 10.28C70.9427 10.7747 71.1527 11.5307 71.1527 12.548V17H70.0747V12.618C70.0747 11.19 69.5007 10.49 68.3527 10.518C67.9234 10.518 67.5407 10.6113 67.2047 10.798C66.878 10.9847 66.6167 11.232 66.4207 11.54C66.234 11.848 66.1407 12.184 66.1407 12.548V17H65.0767ZM77.0806 17V9.678H78.1446L78.1586 11.092C78.3546 10.6533 78.6533 10.2847 79.0546 9.986C79.4559 9.678 79.9133 9.524 80.4266 9.524C80.5853 9.524 80.7346 9.538 80.8746 9.566C81.0146 9.594 81.1313 9.622 81.2246 9.65L80.9306 10.84C80.6879 10.7373 80.4453 10.686 80.2026 10.686C79.7826 10.686 79.4186 10.7887 79.1106 10.994C78.8026 11.19 78.5646 11.4513 78.3966 11.778C78.2379 12.1047 78.1586 12.464 78.1586 12.856V17H77.0806ZM85.2365 17.14C84.4991 17.14 83.8458 16.9813 83.2765 16.664C82.7165 16.3467 82.2778 15.9033 81.9605 15.334C81.6431 14.7647 81.4845 14.1113 81.4845 13.374C81.4845 12.6273 81.6385 11.9647 81.9465 11.386C82.2545 10.8073 82.6838 10.3547 83.2345 10.028C83.7851 9.692 84.4151 9.524 85.1245 9.524C85.7778 9.524 86.3518 9.678 86.8465 9.986C87.3505 10.2847 87.7378 10.7 88.0085 11.232C88.2791 11.7547 88.4051 12.3613 88.3865 13.052L88.3725 13.542H82.5765C82.6231 14.3353 82.8938 14.9653 83.3885 15.432C83.8831 15.8987 84.5411 16.132 85.3625 16.132C85.7171 16.132 86.0625 16.076 86.3985 15.964C86.7438 15.8427 87.1218 15.6093 87.5325 15.264L88.0785 16.034C87.7518 16.3513 87.3365 16.6173 86.8325 16.832C86.3285 17.0373 85.7965 17.14 85.2365 17.14ZM85.1105 10.532C84.4385 10.532 83.8831 10.714 83.4445 11.078C83.0058 11.4327 82.7305 11.9553 82.6185 12.646H87.3085V12.562C87.2898 12.226 87.1918 11.904 87.0145 11.596C86.8371 11.2787 86.5851 11.022 86.2585 10.826C85.9411 10.63 85.5585 10.532 85.1105 10.532ZM92.7471 17.14C92.1125 17.14 91.5385 16.9767 91.0251 16.65C90.5118 16.314 90.1058 15.8613 89.8071 15.292C89.5085 14.7133 89.3591 14.06 89.3591 13.332C89.3591 12.5947 89.5131 11.9413 89.8211 11.372C90.1291 10.7933 90.5445 10.3407 91.0671 10.014C91.5898 9.68733 92.1731 9.524 92.8171 9.524C93.4051 9.524 93.9278 9.65933 94.3851 9.93C94.8518 10.2007 95.2065 10.5507 95.4491 10.98L95.4771 9.678H96.5411V17H95.4631V15.698C95.2018 16.1087 94.8285 16.454 94.3431 16.734C93.8578 17.0047 93.3258 17.14 92.7471 17.14ZM92.9851 16.118C93.4705 16.118 93.9045 16.0013 94.2871 15.768C94.6698 15.5253 94.9685 15.194 95.1831 14.774C95.4071 14.354 95.5191 13.8687 95.5191 13.318C95.5191 12.786 95.4071 12.31 95.1831 11.89C94.9685 11.47 94.6698 11.1433 94.2871 10.91C93.9045 10.6673 93.4705 10.546 92.9851 10.546C92.4905 10.546 92.0518 10.6673 91.6691 10.91C91.2958 11.1433 91.0018 11.47 90.7871 11.89C90.5725 12.31 90.4651 12.786 90.4651 13.318C90.4651 13.8593 90.5725 14.3447 90.7871 14.774C91.0018 15.194 91.2958 15.5253 91.6691 15.768C92.0518 16.0013 92.4905 16.118 92.9851 16.118ZM101.555 17.14C100.883 17.14 100.281 16.9767 99.7488 16.65C99.2261 16.3233 98.8108 15.8753 98.5028 15.306C98.2041 14.7273 98.0548 14.0693 98.0548 13.332C98.0548 12.604 98.2088 11.9553 98.5168 11.386C98.8248 10.8073 99.2401 10.3547 99.7628 10.028C100.285 9.692 100.873 9.524 101.527 9.524C102.087 9.524 102.6 9.65467 103.067 9.916C103.543 10.168 103.911 10.4807 104.173 10.854V6.64H105.237V17H104.187L104.159 15.768C103.925 16.1507 103.571 16.4773 103.095 16.748C102.619 17.0093 102.105 17.14 101.555 17.14ZM101.695 16.16C102.18 16.16 102.614 16.0387 102.997 15.796C103.379 15.5533 103.678 15.222 103.893 14.802C104.117 14.3727 104.229 13.8827 104.229 13.332C104.229 12.7813 104.117 12.296 103.893 11.876C103.678 11.4467 103.379 11.1107 102.997 10.868C102.614 10.6253 102.18 10.504 101.695 10.504C101.2 10.504 100.761 10.6253 100.379 10.868C99.9961 11.1107 99.6974 11.4467 99.4828 11.876C99.2681 12.296 99.1608 12.7813 99.1608 13.332C99.1608 13.8733 99.2681 14.3587 99.4828 14.788C99.6974 15.2173 99.9961 15.5533 100.379 15.796C100.761 16.0387 101.2 16.16 101.695 16.16ZM111.29 19.702V6.64H112.298V19.702H111.29ZM118.636 17L118.3 16.174L121.59 12.478C121.795 12.2447 122.015 11.974 122.248 11.666C122.481 11.3487 122.682 11.022 122.85 10.686C123.018 10.35 123.102 10.028 123.102 9.72C123.102 9.216 122.934 8.824 122.598 8.544C122.262 8.25467 121.823 8.11 121.282 8.11C120.815 8.11 120.353 8.278 119.896 8.614C119.448 8.94067 119.126 9.46333 118.93 10.182L118.048 9.65C118.291 8.80067 118.711 8.15667 119.308 7.718C119.915 7.27933 120.615 7.06 121.408 7.06C121.94 7.06 122.421 7.172 122.85 7.396C123.279 7.61067 123.62 7.91867 123.872 8.32C124.124 8.712 124.25 9.16467 124.25 9.678C124.25 10.2473 124.091 10.812 123.774 11.372C123.457 11.932 123.009 12.534 122.43 13.178L119.952 15.936H124.558V17H118.636ZM130.036 17V14.34H125.794L125.262 13.29L130.246 7.2H131.114V13.29H132.822V14.34H131.114V17H130.036ZM126.508 13.29H130.036V8.992L126.508 13.29ZM137.686 17L141.452 7.2H142.698L146.422 17H145.218L144.21 14.298H139.842L138.82 17H137.686ZM141.2 10.728L140.248 13.22H143.804L142.838 10.658C142.726 10.3593 142.591 9.99067 142.432 9.552C142.283 9.104 142.147 8.69333 142.026 8.32C141.895 8.72133 141.76 9.12733 141.62 9.538C141.48 9.94867 141.34 10.3453 141.2 10.728ZM147.792 20.08V9.678H148.856L148.87 11.008C149.103 10.5973 149.462 10.252 149.948 9.972C150.433 9.68267 150.956 9.538 151.516 9.538C152.169 9.538 152.757 9.70133 153.28 10.028C153.802 10.3547 154.213 10.8073 154.512 11.386C154.82 11.9553 154.974 12.604 154.974 13.332C154.974 14.06 154.824 14.7133 154.526 15.292C154.227 15.8613 153.816 16.3093 153.294 16.636C152.78 16.9627 152.197 17.126 151.544 17.126C150.974 17.126 150.447 16.9907 149.962 16.72C149.476 16.4493 149.112 16.1133 148.87 15.712V20.08H147.792ZM151.362 16.118C151.856 16.118 152.295 15.9967 152.678 15.754C153.06 15.5113 153.359 15.18 153.574 14.76C153.798 14.34 153.91 13.864 153.91 13.332C153.91 12.8 153.798 12.324 153.574 11.904C153.359 11.484 153.06 11.1573 152.678 10.924C152.295 10.6813 151.856 10.56 151.362 10.56C150.867 10.56 150.424 10.6813 150.032 10.924C149.649 11.1573 149.346 11.484 149.122 11.904C148.907 12.3147 148.8 12.7907 148.8 13.332C148.8 13.8733 148.912 14.354 149.136 14.774C149.36 15.194 149.663 15.5253 150.046 15.768C150.428 16.0013 150.867 16.118 151.362 16.118ZM156.501 17V9.678H157.565L157.579 11.092C157.775 10.6533 158.073 10.2847 158.475 9.986C158.876 9.678 159.333 9.524 159.847 9.524C160.005 9.524 160.155 9.538 160.295 9.566C160.435 9.594 160.551 9.622 160.645 9.65L160.351 10.84C160.108 10.7373 159.865 10.686 159.623 10.686C159.203 10.686 158.839 10.7887 158.531 10.994C158.223 11.19 157.985 11.4513 157.817 11.778C157.658 12.1047 157.579 12.464 157.579 12.856V17H156.501ZM165.941 17L165.605 16.174L168.895 12.478C169.1 12.2447 169.319 11.974 169.553 11.666C169.786 11.3487 169.987 11.022 170.155 10.686C170.323 10.35 170.407 10.028 170.407 9.72C170.407 9.216 170.239 8.824 169.903 8.544C169.567 8.25467 169.128 8.11 168.587 8.11C168.12 8.11 167.658 8.278 167.201 8.614C166.753 8.94067 166.431 9.46333 166.235 10.182L165.353 9.65C165.595 8.80067 166.015 8.15667 166.613 7.718C167.219 7.27933 167.919 7.06 168.713 7.06C169.245 7.06 169.725 7.172 170.155 7.396C170.584 7.61067 170.925 7.91867 171.177 8.32C171.429 8.712 171.555 9.16467 171.555 9.678C171.555 10.2473 171.396 10.812 171.079 11.372C170.761 11.932 170.313 12.534 169.735 13.178L167.257 15.936H171.863V17H165.941ZM176.593 17.14C175.454 17.14 174.567 16.6967 173.933 15.81C173.298 14.914 172.981 13.6773 172.981 12.1C172.981 10.5133 173.298 9.27667 173.933 8.39C174.567 7.50333 175.454 7.06 176.593 7.06C177.722 7.06 178.604 7.50333 179.239 8.39C179.883 9.27667 180.205 10.5133 180.205 12.1C180.205 13.6773 179.883 14.914 179.239 15.81C178.604 16.6967 177.722 17.14 176.593 17.14ZM176.593 16.104C177.386 16.104 178.002 15.7587 178.441 15.068C178.879 14.368 179.099 13.3787 179.099 12.1C179.099 10.8213 178.879 9.83667 178.441 9.146C178.002 8.446 177.386 8.096 176.593 8.096C175.79 8.096 175.169 8.446 174.731 9.146C174.301 9.83667 174.087 10.8213 174.087 12.1C174.087 13.3787 174.301 14.368 174.731 15.068C175.169 15.7587 175.79 16.104 176.593 16.104ZM182.183 17L181.847 16.174L185.137 12.478C185.342 12.2447 185.562 11.974 185.795 11.666C186.028 11.3487 186.229 11.022 186.397 10.686C186.565 10.35 186.649 10.028 186.649 9.72C186.649 9.216 186.481 8.824 186.145 8.544C185.809 8.25467 185.37 8.11 184.829 8.11C184.362 8.11 183.9 8.278 183.443 8.614C182.995 8.94067 182.673 9.46333 182.477 10.182L181.595 9.65C181.838 8.80067 182.258 8.15667 182.855 7.718C183.462 7.27933 184.162 7.06 184.955 7.06C185.487 7.06 185.968 7.172 186.397 7.396C186.826 7.61067 187.167 7.91867 187.419 8.32C187.671 8.712 187.797 9.16467 187.797 9.678C187.797 10.2473 187.638 10.812 187.321 11.372C187.004 11.932 186.556 12.534 185.977 13.178L183.499 15.936H188.105V17H182.183ZM190.021 17V15.922H191.463V8.628L190.035 9.482L189.727 8.474L192.149 7.06H192.569V15.922H194.053V17H190.021Z" fill="#888B97"/>
</svg>
